<?xml version="1.0" encoding="UTF-8" standalone="no"?>
<!DOCTYPE svg PUBLIC "-//W3C//DTD SVG 1.1//EN"
 "http://www.w3.org/Graphics/SVG/1.1/DTD/svg11.dtd">
<!-- Generated by graphviz version 13.0.1 (20250615.1724)
 -->
<!-- Title: ChordNetwork Pages: 1 -->
<svg width="1078pt" height="880pt"
 viewBox="0.00 0.00 1078.00 880.00" xmlns="http://www.w3.org/2000/svg" xmlns:xlink="http://www.w3.org/1999/xlink">
<g id="graph0" class="graph" transform="scale(1.66667 1.66667) rotate(0) translate(4 524)">
<title>ChordNetwork</title>
<polygon fill="white" stroke="none" points="-4,4 -4,-524 642.67,-524 642.67,4 -4,4"/>
<!-- 2 -->
<g id="node1" class="node">
<title>2</title>
<ellipse fill="none" stroke="black" stroke-width="2" cx="475.74" cy="-317.64" rx="18" ry="18"/>
<text xml:space="preserve" text-anchor="middle" x="475.74" y="-312.59" font-family="Times,serif" font-size="14.00">2</text>
</g>
<!-- 125 -->
<g id="node2" class="node">
<title>125</title>
<ellipse fill="none" stroke="black" stroke-width="2" cx="512.67" cy="-204" rx="24.74" ry="24.74"/>
<text xml:space="preserve" text-anchor="middle" x="512.67" y="-198.95" font-family="Times,serif" font-size="14.00">125</text>
</g>
<!-- 2&#45;&gt;125 -->
<g id="edge1" class="edge">
<title>2&#45;&gt;125</title>
<path fill="none" stroke="blue" stroke-width="2.5" d="M481.59,-299.63C486.68,-283.97 494.22,-260.77 500.6,-241.15"/>
<polygon fill="blue" stroke="blue" stroke-width="2.5" points="503.85,-242.46 503.61,-231.87 497.19,-240.3 503.85,-242.46"/>
<text xml:space="preserve" text-anchor="middle" x="482.09" y="-272.14" font-family="Times,serif" font-size="10.00">succ</text>
</g>
<!-- 16 -->
<g id="node3" class="node">
<title>16</title>
<ellipse fill="none" stroke="black" stroke-width="2" cx="162.92" cy="-317.64" rx="20.13" ry="20.13"/>
<text xml:space="preserve" text-anchor="middle" x="162.92" y="-312.59" font-family="Times,serif" font-size="14.00">16</text>
</g>
<!-- 2&#45;&gt;16 -->
<g id="edge2" class="edge">
<title>2&#45;&gt;16</title>
<path fill="none" stroke="gray" stroke-width="1.5" d="M459.8,-308.08C410.19,-294.9 258.01,-293.91 192.94,-305.1"/>
<polygon fill="gray" stroke="gray" stroke-width="1.5" points="192.47,-301.62 183.37,-307.05 193.86,-308.48 192.47,-301.62"/>
<text xml:space="preserve" text-anchor="middle" x="322.24" y="-297.09" font-family="Times,serif" font-size="10.00">f1</text>
</g>
<!-- 2&#45;&gt;16 -->
<g id="edge3" class="edge">
<title>2&#45;&gt;16</title>
<path fill="none" stroke="gray" stroke-width="1.5" d="M459.8,-327.2C410.19,-340.38 258.01,-341.37 192.94,-330.18"/>
<polygon fill="gray" stroke="gray" stroke-width="1.5" points="193.86,-326.8 183.37,-328.23 192.47,-333.66 193.86,-326.8"/>
<text xml:space="preserve" text-anchor="middle" x="322.24" y="-330.44" font-family="Times,serif" font-size="10.00">f2</text>
</g>
<!-- 2&#45;&gt;16 -->
<g id="edge4" class="edge">
<title>2&#45;&gt;16</title>
<path fill="none" stroke="gray" stroke-width="1.5" d="M457.11,-321.05C405.57,-325.18 260.59,-325.48 195.39,-321.96"/>
<polygon fill="gray" stroke="gray" stroke-width="1.5" points="195.94,-318.48 185.74,-321.35 195.5,-325.47 195.94,-318.48"/>
<text xml:space="preserve" text-anchor="middle" x="322.13" y="-323.25" font-family="Times,serif" font-size="10.00">f3</text>
</g>
<!-- 2&#45;&gt;16 -->
<g id="edge5" class="edge">
<title>2&#45;&gt;16</title>
<path fill="none" stroke="gray" stroke-width="1.5" d="M457.11,-314.23C405.57,-310.1 260.59,-309.8 195.39,-313.32"/>
<polygon fill="gray" stroke="gray" stroke-width="1.5" points="195.5,-309.81 185.74,-313.94 195.94,-316.8 195.5,-309.81"/>
<text xml:space="preserve" text-anchor="middle" x="322.13" y="-315.53" font-family="Times,serif" font-size="10.00">f4</text>
</g>
<!-- 47 -->
<g id="node4" class="node">
<title>47</title>
<ellipse fill="none" stroke="black" stroke-width="2" cx="379.08" cy="-387.87" rx="20.13" ry="20.13"/>
<text xml:space="preserve" text-anchor="middle" x="379.08" y="-382.82" font-family="Times,serif" font-size="14.00">47</text>
</g>
<!-- 2&#45;&gt;47 -->
<g id="edge6" class="edge">
<title>2&#45;&gt;47</title>
<path fill="none" stroke="gray" stroke-width="1.5" d="M460.64,-328.61C445.99,-339.26 423.45,-355.63 405.77,-368.48"/>
<polygon fill="gray" stroke="gray" stroke-width="1.5" points="403.89,-365.51 397.86,-374.22 408.01,-371.18 403.89,-365.51"/>
<text xml:space="preserve" text-anchor="middle" x="429.08" y="-350.29" font-family="Times,serif" font-size="10.00">f5</text>
</g>
<!-- 113 -->
<g id="node5" class="node">
<title>113</title>
<ellipse fill="none" stroke="black" stroke-width="2" cx="126" cy="-204" rx="24.74" ry="24.74"/>
<text xml:space="preserve" text-anchor="middle" x="126" y="-198.95" font-family="Times,serif" font-size="14.00">113</text>
</g>
<!-- 2&#45;&gt;113 -->
<g id="edge7" class="edge">
<title>2&#45;&gt;113</title>
<path fill="none" stroke="gray" stroke-width="1.5" d="M459.37,-309.01C406.28,-287.15 238.11,-232.11 162.93,-211.5"/>
<polygon fill="gray" stroke="gray" stroke-width="1.5" points="164.03,-208.17 153.47,-208.97 162.23,-214.93 164.03,-208.17"/>
<text xml:space="preserve" text-anchor="middle" x="307.03" y="-262" font-family="Times,serif" font-size="10.00">f6</text>
</g>
<!-- data_2 -->
<g id="node6" class="node">
<title>data_2</title>
<polygon fill="none" stroke="black" stroke-width="2" points="582.84,-393.83 528.84,-393.83 528.84,-357.83 582.84,-357.83 582.84,-393.83"/>
<text xml:space="preserve" text-anchor="middle" x="555.84" y="-371.96" font-family="Times,serif" font-size="10.00">1</text>
</g>
<!-- 2&#45;&gt;data_2 -->
<g id="edge8" class="edge">
<title>2&#45;&gt;data_2</title>
<path fill="none" stroke="black" stroke-width="1.5" stroke-dasharray="1,5" d="M490.81,-328.59C499.12,-334.62 509.82,-342.4 520.13,-349.89"/>
<polygon fill="black" stroke="black" stroke-width="1.5" points="517.82,-352.54 527.97,-355.58 521.94,-346.88 517.82,-352.54"/>
</g>
<!-- 125&#45;&gt;16 -->
<g id="edge9" class="edge">
<title>125&#45;&gt;16</title>
<path fill="none" stroke="blue" stroke-width="2.5" d="M488.35,-211.9C426.9,-231.87 265.33,-284.36 195.67,-307"/>
<polygon fill="blue" stroke="blue" stroke-width="2.5" points="194.67,-303.65 186.24,-310.07 196.83,-310.3 194.67,-303.65"/>
<text xml:space="preserve" text-anchor="middle" x="333.01" y="-261.2" font-family="Times,serif" font-size="10.00">succ</text>
</g>
<!-- 125&#45;&gt;47 -->
<g id="edge10" class="edge">
<title>125&#45;&gt;47</title>
<path fill="none" stroke="gray" stroke-width="1.5" d="M497.6,-224.74C473.21,-258.3 425.12,-324.5 398.3,-361.41"/>
<polygon fill="gray" stroke="gray" stroke-width="1.5" points="395.72,-359.01 392.67,-369.16 401.38,-363.13 395.72,-359.01"/>
<text xml:space="preserve" text-anchor="middle" x="443.83" y="-294.83" font-family="Times,serif" font-size="10.00">f5</text>
</g>
<!-- 61 -->
<g id="node7" class="node">
<title>61</title>
<ellipse fill="none" stroke="black" stroke-width="2" cx="259.59" cy="-20.13" rx="20.13" ry="20.13"/>
<text xml:space="preserve" text-anchor="middle" x="259.59" y="-15.08" font-family="Times,serif" font-size="14.00">61</text>
</g>
<!-- 125&#45;&gt;61 -->
<g id="edge11" class="edge">
<title>125&#45;&gt;61</title>
<path fill="none" stroke="gray" stroke-width="1.5" d="M491.96,-188.95C446.33,-155.8 337.17,-76.5 286.4,-39.61"/>
<polygon fill="gray" stroke="gray" stroke-width="1.5" points="288.48,-36.8 278.34,-33.75 284.37,-42.46 288.48,-36.8"/>
<text xml:space="preserve" text-anchor="middle" x="385.05" y="-116.03" font-family="Times,serif" font-size="10.00">f6</text>
</g>
<!-- data_125 -->
<g id="node8" class="node">
<title>data_125</title>
<polygon fill="none" stroke="black" stroke-width="2" points="638.67,-222 584.67,-222 584.67,-186 638.67,-186 638.67,-222"/>
<text xml:space="preserve" text-anchor="middle" x="611.67" y="-200.13" font-family="Times,serif" font-size="10.00">3</text>
</g>
<!-- 125&#45;&gt;data_125 -->
<g id="edge12" class="edge">
<title>125&#45;&gt;data_125</title>
<path fill="none" stroke="black" stroke-width="1.5" stroke-dasharray="1,5" d="M538.16,-204C548.43,-204 560.51,-204 571.88,-204"/>
<polygon fill="black" stroke="black" stroke-width="1.5" points="571.55,-207.5 581.55,-204 571.55,-200.5 571.55,-207.5"/>
</g>
<!-- 16&#45;&gt;16 -->
<g id="edge14" class="edge">
<title>16&#45;&gt;16</title>
<path fill="none" stroke="gray" stroke-width="1.5" d="M183.71,-319.12C193.01,-319.26 201.05,-318.77 201.05,-317.64 201.05,-317.08 199.04,-316.67 195.87,-316.43"/>
<polygon fill="gray" stroke="gray" stroke-width="1.5" points="196.05,-312.93 185.98,-316.21 195.9,-319.93 196.05,-312.93"/>
<text xml:space="preserve" text-anchor="middle" x="205.18" y="-313.77" font-family="Times,serif" font-size="10.00">f1</text>
</g>
<!-- 16&#45;&gt;16 -->
<g id="edge15" class="edge">
<title>16&#45;&gt;16</title>
<path fill="none" stroke="gray" stroke-width="1.5" d="M183.43,-322.04C228.26,-329.4 291.05,-327.93 291.05,-317.64 291.05,-308.24 238.59,-306.2 195.33,-311.54"/>
<polygon fill="gray" stroke="gray" stroke-width="1.5" points="195.08,-308.04 185.67,-312.92 196.07,-314.97 195.08,-308.04"/>
<text xml:space="preserve" text-anchor="middle" x="295.18" y="-313.77" font-family="Times,serif" font-size="10.00">f2</text>
</g>
<!-- 16&#45;&gt;16 -->
<g id="edge16" class="edge">
<title>16&#45;&gt;16</title>
<path fill="none" stroke="gray" stroke-width="1.5" d="M183.47,-321.75C221.75,-327.37 273.05,-326 273.05,-317.64 273.05,-310.13 231.64,-308.26 195.47,-312.03"/>
<polygon fill="gray" stroke="gray" stroke-width="1.5" points="195.21,-308.54 185.72,-313.25 196.08,-315.48 195.21,-308.54"/>
<text xml:space="preserve" text-anchor="middle" x="277.18" y="-313.77" font-family="Times,serif" font-size="10.00">f3</text>
</g>
<!-- 16&#45;&gt;16 -->
<g id="edge17" class="edge">
<title>16&#45;&gt;16</title>
<path fill="none" stroke="gray" stroke-width="1.5" d="M183.29,-321.35C214.9,-325.35 255.05,-324.11 255.05,-317.64 255.05,-311.98 224.31,-310.32 195.45,-312.67"/>
<polygon fill="gray" stroke="gray" stroke-width="1.5" points="195.13,-309.19 185.55,-313.69 195.85,-316.15 195.13,-309.19"/>
<text xml:space="preserve" text-anchor="middle" x="259.18" y="-313.77" font-family="Times,serif" font-size="10.00">f4</text>
</g>
<!-- 16&#45;&gt;16 -->
<g id="edge18" class="edge">
<title>16&#45;&gt;16</title>
<path fill="none" stroke="gray" stroke-width="1.5" d="M183.79,-320.91C208.38,-323.3 237.05,-322.21 237.05,-317.64 237.05,-313.8 216.83,-312.42 195.79,-313.49"/>
<polygon fill="gray" stroke="gray" stroke-width="1.5" points="195.77,-309.98 186.06,-314.21 196.29,-316.96 195.77,-309.98"/>
<text xml:space="preserve" text-anchor="middle" x="241.18" y="-313.77" font-family="Times,serif" font-size="10.00">f5</text>
</g>
<!-- 16&#45;&gt;16 -->
<g id="edge19" class="edge">
<title>16&#45;&gt;16</title>
<path fill="none" stroke="gray" stroke-width="1.5" d="M183.65,-320.18C200.96,-321.27 219.05,-320.42 219.05,-317.64 219.05,-315.51 208.45,-314.51 195.71,-314.65"/>
<polygon fill="gray" stroke="gray" stroke-width="1.5" points="195.78,-311.15 185.92,-315.01 196.04,-318.14 195.78,-311.15"/>
<text xml:space="preserve" text-anchor="middle" x="223.18" y="-313.77" font-family="Times,serif" font-size="10.00">f6</text>
</g>
<!-- 28 -->
<g id="node9" class="node">
<title>28</title>
<ellipse fill="none" stroke="black" stroke-width="2" cx="162.92" cy="-90.36" rx="20.13" ry="20.13"/>
<text xml:space="preserve" text-anchor="middle" x="162.92" y="-85.31" font-family="Times,serif" font-size="14.00">28</text>
</g>
<!-- 16&#45;&gt;28 -->
<g id="edge13" class="edge">
<title>16&#45;&gt;28</title>
<path fill="none" stroke="blue" stroke-width="2.5" d="M162.92,-296.67C162.92,-257.43 162.92,-172.58 162.92,-124.83"/>
<polygon fill="blue" stroke="blue" stroke-width="2.5" points="166.42,-125.07 162.92,-115.07 159.42,-125.07 166.42,-125.07"/>
<text xml:space="preserve" text-anchor="middle" x="153.92" y="-212.5" font-family="Times,serif" font-size="10.00">succ</text>
</g>
<!-- data_16 -->
<g id="node10" class="node">
<title>data_16</title>
<polygon fill="none" stroke="black" stroke-width="2" points="109.83,-393.83 55.83,-393.83 55.83,-357.83 109.83,-357.83 109.83,-393.83"/>
<text xml:space="preserve" text-anchor="middle" x="82.83" y="-371.96" font-family="Times,serif" font-size="10.00">4</text>
</g>
<!-- 16&#45;&gt;data_16 -->
<g id="edge20" class="edge">
<title>16&#45;&gt;data_16</title>
<path fill="none" stroke="black" stroke-width="1.5" stroke-dasharray="1,5" d="M145.94,-329.98C137.96,-335.78 128.14,-342.91 118.63,-349.82"/>
<polygon fill="black" stroke="black" stroke-width="1.5" points="116.81,-346.82 110.77,-355.53 120.92,-352.48 116.81,-346.82"/>
</g>
<!-- 47&#45;&gt;113 -->
<g id="edge29" class="edge">
<title>47&#45;&gt;113</title>
<path fill="none" stroke="gray" stroke-width="1.5" d="M367.34,-370.73C330.44,-334.08 218.06,-251.59 160.47,-217.92"/>
<polygon fill="gray" stroke="gray" stroke-width="1.5" points="162.46,-215.02 152.03,-213.15 159.02,-221.12 162.46,-215.02"/>
<text xml:space="preserve" text-anchor="middle" x="259.78" y="-284.82" font-family="Times,serif" font-size="10.00">f4</text>
</g>
<!-- 47&#45;&gt;113 -->
<g id="edge30" class="edge">
<title>47&#45;&gt;113</title>
<path fill="none" stroke="gray" stroke-width="1.5" d="M359.15,-382.01C312.89,-358.24 199.7,-276.85 149.89,-232.49"/>
<polygon fill="gray" stroke="gray" stroke-width="1.5" points="152.48,-230.12 142.75,-225.93 147.75,-235.28 152.48,-230.12"/>
<text xml:space="preserve" text-anchor="middle" x="250.39" y="-309" font-family="Times,serif" font-size="10.00">f5</text>
</g>
<!-- 47&#45;&gt;113 -->
<g id="edge31" class="edge">
<title>47&#45;&gt;113</title>
<path fill="none" stroke="gray" stroke-width="1.5" d="M362.08,-375.52C319.91,-344.89 210.05,-265.06 156.38,-226.08"/>
<polygon fill="gray" stroke="gray" stroke-width="1.5" points="158.73,-223.45 148.58,-220.41 154.61,-229.12 158.73,-223.45"/>
<text xml:space="preserve" text-anchor="middle" x="255.11" y="-291.3" font-family="Times,serif" font-size="10.00">f6</text>
</g>
<!-- 47&#45;&gt;61 -->
<g id="edge28" class="edge">
<title>47&#45;&gt;61</title>
<path fill="none" stroke="blue" stroke-width="2.5" d="M372.57,-367.84C352.99,-307.57 294.48,-127.52 270.27,-52.99"/>
<polygon fill="blue" stroke="blue" stroke-width="2.5" points="273.62,-51.99 267.2,-43.56 266.96,-54.15 273.62,-51.99"/>
<text xml:space="preserve" text-anchor="middle" x="312.42" y="-212.17" font-family="Times,serif" font-size="10.00">succ</text>
</g>
<!-- data_47 -->
<g id="node11" class="node">
<title>data_47</title>
<polygon fill="none" stroke="black" stroke-width="2" points="436.67,-500.03 382.67,-500.03 382.67,-464.03 436.67,-464.03 436.67,-500.03"/>
<text xml:space="preserve" text-anchor="middle" x="409.67" y="-478.15" font-family="Times,serif" font-size="10.00">1</text>
</g>
<!-- 47&#45;&gt;data_47 -->
<g id="edge32" class="edge">
<title>47&#45;&gt;data_47</title>
<path fill="none" stroke="black" stroke-width="1.5" stroke-dasharray="1,5" d="M385.56,-407.84C389.7,-420.58 395.15,-437.33 399.81,-451.69"/>
<polygon fill="black" stroke="black" stroke-width="1.5" points="396.38,-452.46 402.8,-460.89 403.04,-450.3 396.38,-452.46"/>
</g>
<!-- 113&#45;&gt;2 -->
<g id="edge58" class="edge">
<title>113&#45;&gt;2</title>
<path fill="none" stroke="blue" stroke-width="2.5" d="M148.92,-215.27C209.61,-239.22 374.54,-292.94 444.12,-311.58"/>
<polygon fill="blue" stroke="blue" stroke-width="2.5" points="442.86,-314.87 453.41,-313.97 444.6,-308.09 442.86,-314.87"/>
<text xml:space="preserve" text-anchor="middle" x="287.52" y="-265.17" font-family="Times,serif" font-size="10.00">succ</text>
</g>
<!-- 113&#45;&gt;16 -->
<g id="edge59" class="edge">
<title>113&#45;&gt;16</title>
<path fill="none" stroke="gray" stroke-width="1.5" d="M112.7,-225.79C110.31,-248.39 120.53,-282.51 135,-302.42"/>
<polygon fill="gray" stroke="gray" stroke-width="1.5" points="132.17,-304.5 141.4,-309.69 137.42,-299.87 132.17,-304.5"/>
<text xml:space="preserve" text-anchor="middle" x="119.72" y="-265.85" font-family="Times,serif" font-size="10.00">f1</text>
</g>
<!-- 113&#45;&gt;16 -->
<g id="edge60" class="edge">
<title>113&#45;&gt;16</title>
<path fill="none" stroke="gray" stroke-width="1.5" d="M149.57,-213.81C164.78,-230.69 176.57,-264.3 176.57,-288.91"/>
<polygon fill="gray" stroke="gray" stroke-width="1.5" points="173.11,-288.27 175.66,-298.56 180.08,-288.93 173.11,-288.27"/>
<text xml:space="preserve" text-anchor="middle" x="158.94" y="-253.11" font-family="Times,serif" font-size="10.00">f2</text>
</g>
<!-- 113&#45;&gt;16 -->
<g id="edge61" class="edge">
<title>113&#45;&gt;16</title>
<path fill="none" stroke="gray" stroke-width="1.5" d="M143.5,-222.54C152.26,-239.53 160.87,-264.96 164.93,-285.28"/>
<polygon fill="gray" stroke="gray" stroke-width="1.5" points="161.43,-285.59 166.47,-294.91 168.34,-284.48 161.43,-285.59"/>
<text xml:space="preserve" text-anchor="middle" x="150.09" y="-255.66" font-family="Times,serif" font-size="10.00">f3</text>
</g>
<!-- 113&#45;&gt;16 -->
<g id="edge62" class="edge">
<title>113&#45;&gt;16</title>
<path fill="none" stroke="gray" stroke-width="1.5" d="M133.92,-228.38C139.42,-245.31 146.8,-268.02 152.74,-286.3"/>
<polygon fill="gray" stroke="gray" stroke-width="1.5" points="149.37,-287.25 155.79,-295.68 156.03,-285.09 149.37,-287.25"/>
<text xml:space="preserve" text-anchor="middle" x="139.21" y="-259.09" font-family="Times,serif" font-size="10.00">f4</text>
</g>
<!-- 113&#45;&gt;16 -->
<g id="edge63" class="edge">
<title>113&#45;&gt;16</title>
<path fill="none" stroke="gray" stroke-width="1.5" d="M122.74,-229.29C125.64,-248.18 133.63,-273.82 142.28,-292.64"/>
<polygon fill="gray" stroke="gray" stroke-width="1.5" points="139.05,-294 146.69,-301.34 145.29,-290.84 139.05,-294"/>
<text xml:space="preserve" text-anchor="middle" x="128.39" y="-262.71" font-family="Times,serif" font-size="10.00">f5</text>
</g>
<!-- 113&#45;&gt;113 -->
<g id="edge64" class="edge">
<title>113&#45;&gt;113</title>
<path fill="none" stroke="gray" stroke-width="1.5" d="M150.59,-210.71C160.46,-211.09 168.74,-208.85 168.74,-204 168.74,-201.42 166.4,-199.59 162.73,-198.48"/>
<polygon fill="gray" stroke="gray" stroke-width="1.5" points="163.15,-195.01 152.85,-197.51 162.46,-201.97 163.15,-195.01"/>
<text xml:space="preserve" text-anchor="middle" x="172.86" y="-200.13" font-family="Times,serif" font-size="10.00">f6</text>
</g>
<!-- data_113 -->
<g id="node16" class="node">
<title>data_113</title>
<polygon fill="none" stroke="black" stroke-width="2" points="54,-222 0,-222 0,-186 54,-186 54,-222"/>
<text xml:space="preserve" text-anchor="middle" x="27" y="-200.13" font-family="Times,serif" font-size="10.00">3</text>
</g>
<!-- 113&#45;&gt;data_113 -->
<g id="edge65" class="edge">
<title>113&#45;&gt;data_113</title>
<path fill="none" stroke="black" stroke-width="1.5" stroke-dasharray="1,5" d="M100.51,-204C90.24,-204 78.16,-204 66.78,-204"/>
<polygon fill="black" stroke="black" stroke-width="1.5" points="67.11,-200.5 57.11,-204 67.11,-207.5 67.11,-200.5"/>
</g>
<!-- 61&#45;&gt;16 -->
<g id="edge39" class="edge">
<title>61&#45;&gt;16</title>
<path fill="none" stroke="gray" stroke-width="1.5" d="M253.1,-40.11C236.62,-90.82 193.09,-224.79 173.16,-286.15"/>
<polygon fill="gray" stroke="gray" stroke-width="1.5" points="169.85,-284.99 170.09,-295.59 176.51,-287.16 169.85,-284.99"/>
<text xml:space="preserve" text-anchor="middle" x="209" y="-164.88" font-family="Times,serif" font-size="10.00">f6</text>
</g>
<!-- 61&#45;&gt;113 -->
<g id="edge34" class="edge">
<title>61&#45;&gt;113</title>
<path fill="none" stroke="gray" stroke-width="1.5" d="M238.98,-24.03C205.25,-45 148.55,-120.22 128.86,-167.13"/>
<polygon fill="gray" stroke="gray" stroke-width="1.5" points="125.67,-165.67 125.48,-176.27 132.23,-168.1 125.67,-165.67"/>
<text xml:space="preserve" text-anchor="middle" x="179.8" y="-97.33" font-family="Times,serif" font-size="10.00">f1</text>
</g>
<!-- 61&#45;&gt;113 -->
<g id="edge35" class="edge">
<title>61&#45;&gt;113</title>
<path fill="none" stroke="gray" stroke-width="1.5" d="M262.25,-40.93C252.73,-79.49 198.71,-156.67 160.18,-189.89"/>
<polygon fill="gray" stroke="gray" stroke-width="1.5" points="158.22,-186.98 152.54,-195.93 162.56,-192.47 158.22,-186.98"/>
<text xml:space="preserve" text-anchor="middle" x="207.09" y="-117.16" font-family="Times,serif" font-size="10.00">f2</text>
</g>
<!-- 61&#45;&gt;113 -->
<g id="edge36" class="edge">
<title>61&#45;&gt;113</title>
<path fill="none" stroke="gray" stroke-width="1.5" d="M254.64,-40.49C237.58,-75.11 188.24,-144.28 155.51,-180.72"/>
<polygon fill="gray" stroke="gray" stroke-width="1.5" points="152.99,-178.3 148.72,-188 158.1,-183.08 152.99,-178.3"/>
<text xml:space="preserve" text-anchor="middle" x="200.95" y="-112.36" font-family="Times,serif" font-size="10.00">f3</text>
</g>
<!-- 61&#45;&gt;113 -->
<g id="edge37" class="edge">
<title>61&#45;&gt;113</title>
<path fill="none" stroke="gray" stroke-width="1.5" d="M247.26,-37.1C224.67,-68.19 176.36,-134.69 148.01,-173.71"/>
<polygon fill="gray" stroke="gray" stroke-width="1.5" points="145.3,-171.48 142.25,-181.63 150.96,-175.6 145.3,-171.48"/>
<text xml:space="preserve" text-anchor="middle" x="193.51" y="-107.15" font-family="Times,serif" font-size="10.00">f4</text>
</g>
<!-- 61&#45;&gt;113 -->
<g id="edge38" class="edge">
<title>61&#45;&gt;113</title>
<path fill="none" stroke="gray" stroke-width="1.5" d="M241.76,-31.13C214.11,-58.05 163.56,-126.35 139.02,-168.74"/>
<polygon fill="gray" stroke="gray" stroke-width="1.5" points="135.98,-167 134.2,-177.45 142.1,-170.39 135.98,-167"/>
<text xml:space="preserve" text-anchor="middle" x="186.26" y="-101.68" font-family="Times,serif" font-size="10.00">f5</text>
</g>
<!-- 62 -->
<g id="node12" class="node">
<title>62</title>
<ellipse fill="none" stroke="black" stroke-width="2" cx="379.08" cy="-20.13" rx="20.13" ry="20.13"/>
<text xml:space="preserve" text-anchor="middle" x="379.08" y="-15.08" font-family="Times,serif" font-size="14.00">62</text>
</g>
<!-- 61&#45;&gt;62 -->
<g id="edge33" class="edge">
<title>61&#45;&gt;62</title>
<path fill="none" stroke="blue" stroke-width="2.5" d="M280.68,-20.13C298.34,-20.13 323.9,-20.13 344.54,-20.13"/>
<polygon fill="blue" stroke="blue" stroke-width="2.5" points="344.42,-23.63 354.42,-20.13 344.42,-16.63 344.42,-23.63"/>
<text xml:space="preserve" text-anchor="middle" x="303.61" y="-21.88" font-family="Times,serif" font-size="10.00">succ</text>
</g>
<!-- 28&#45;&gt;47 -->
<g id="edge21" class="edge">
<title>28&#45;&gt;47</title>
<path fill="none" stroke="blue" stroke-width="2.5" d="M175.16,-107.21C210.75,-156.19 314.44,-298.9 358.68,-359.8"/>
<polygon fill="blue" stroke="blue" stroke-width="2.5" points="355.77,-361.75 364.48,-367.78 361.43,-357.63 355.77,-361.75"/>
<text xml:space="preserve" text-anchor="middle" x="257.92" y="-235.26" font-family="Times,serif" font-size="10.00">succ</text>
</g>
<!-- 28&#45;&gt;113 -->
<g id="edge27" class="edge">
<title>28&#45;&gt;113</title>
<path fill="none" stroke="gray" stroke-width="1.5" d="M156.41,-110.42C151.22,-126.38 143.83,-149.14 137.63,-168.21"/>
<polygon fill="gray" stroke="gray" stroke-width="1.5" points="134.32,-167.06 134.56,-177.65 140.98,-169.22 134.32,-167.06"/>
<text xml:space="preserve" text-anchor="middle" x="142.89" y="-141.06" font-family="Times,serif" font-size="10.00">f6</text>
</g>
<!-- 28&#45;&gt;61 -->
<g id="edge22" class="edge">
<title>28&#45;&gt;61</title>
<path fill="none" stroke="gray" stroke-width="1.5" d="M182.78,-97.08C205.36,-94.68 238.05,-72.9 253.66,-51.51"/>
<polygon fill="gray" stroke="gray" stroke-width="1.5" points="256.57,-53.46 258.67,-43.07 250.55,-49.88 256.57,-53.46"/>
<text xml:space="preserve" text-anchor="middle" x="214.09" y="-76.04" font-family="Times,serif" font-size="10.00">f1</text>
</g>
<!-- 28&#45;&gt;61 -->
<g id="edge23" class="edge">
<title>28&#45;&gt;61</title>
<path fill="none" stroke="gray" stroke-width="1.5" d="M162.57,-69.64C171.69,-48.88 202.57,-24.4 227.82,-16.11"/>
<polygon fill="gray" stroke="gray" stroke-width="1.5" points="228.45,-19.56 237.42,-13.93 226.9,-12.73 228.45,-19.56"/>
<text xml:space="preserve" text-anchor="middle" x="191.07" y="-44.62" font-family="Times,serif" font-size="10.00">f2</text>
</g>
<!-- 28&#45;&gt;61 -->
<g id="edge24" class="edge">
<title>28&#45;&gt;61</title>
<path fill="none" stroke="gray" stroke-width="1.5" d="M171.72,-71.59C184.69,-57.36 208.46,-39.31 228.15,-28.25"/>
<polygon fill="gray" stroke="gray" stroke-width="1.5" points="229.54,-31.47 236.84,-23.8 226.34,-25.24 229.54,-31.47"/>
<text xml:space="preserve" text-anchor="middle" x="195.81" y="-51.67" font-family="Times,serif" font-size="10.00">f3</text>
</g>
<!-- 28&#45;&gt;61 -->
<g id="edge25" class="edge">
<title>28&#45;&gt;61</title>
<path fill="none" stroke="gray" stroke-width="1.5" d="M179.76,-78.13C194.36,-67.52 215.76,-51.97 232.73,-39.65"/>
<polygon fill="gray" stroke="gray" stroke-width="1.5" points="234.75,-42.5 240.78,-33.79 230.64,-36.84 234.75,-42.5"/>
<text xml:space="preserve" text-anchor="middle" x="202.12" y="-60.64" font-family="Times,serif" font-size="10.00">f4</text>
</g>
<!-- 28&#45;&gt;61 -->
<g id="edge26" class="edge">
<title>28&#45;&gt;61</title>
<path fill="none" stroke="gray" stroke-width="1.5" d="M183.49,-87.8C201.12,-79.82 225.78,-62.67 242.38,-47.31"/>
<polygon fill="gray" stroke="gray" stroke-width="1.5" points="244.47,-50.18 249.07,-40.64 239.52,-45.22 244.47,-50.18"/>
<text xml:space="preserve" text-anchor="middle" x="208.81" y="-69.31" font-family="Times,serif" font-size="10.00">f5</text>
</g>
<!-- 62&#45;&gt;2 -->
<g id="edge46" class="edge">
<title>62&#45;&gt;2</title>
<path fill="none" stroke="gray" stroke-width="1.5" d="M385.57,-40.11C402.24,-91.43 446.63,-228.03 466.22,-288.33"/>
<polygon fill="gray" stroke="gray" stroke-width="1.5" points="462.78,-289.07 469.2,-297.49 469.44,-286.9 462.78,-289.07"/>
<text xml:space="preserve" text-anchor="middle" x="421.77" y="-165.97" font-family="Times,serif" font-size="10.00">f6</text>
</g>
<!-- 62&#45;&gt;113 -->
<g id="edge41" class="edge">
<title>62&#45;&gt;113</title>
<path fill="none" stroke="gray" stroke-width="1.5" d="M358.24,-19.32C308.2,-34.43 187.58,-120.25 142.31,-170.74"/>
<polygon fill="gray" stroke="gray" stroke-width="1.5" points="139.72,-168.37 135.99,-178.29 145.09,-172.87 139.72,-168.37"/>
<text xml:space="preserve" text-anchor="middle" x="246.15" y="-96.78" font-family="Times,serif" font-size="10.00">f1</text>
</g>
<!-- 62&#45;&gt;113 -->
<g id="edge42" class="edge">
<title>62&#45;&gt;113</title>
<path fill="none" stroke="gray" stroke-width="1.5" d="M373.41,-40.19C343.57,-83.11 224.69,-171.31 162.68,-198.77"/>
<polygon fill="gray" stroke="gray" stroke-width="1.5" points="161.51,-195.47 153.54,-202.45 164.13,-201.96 161.51,-195.47"/>
<text xml:space="preserve" text-anchor="middle" x="263.92" y="-121.23" font-family="Times,serif" font-size="10.00">f2</text>
</g>
<!-- 62&#45;&gt;113 -->
<g id="edge43" class="edge">
<title>62&#45;&gt;113</title>
<path fill="none" stroke="gray" stroke-width="1.5" d="M367.34,-37.27C330.44,-73.92 218.06,-156.42 160.47,-190.09"/>
<polygon fill="gray" stroke="gray" stroke-width="1.5" points="159.02,-186.89 152.03,-194.85 162.46,-192.98 159.02,-186.89"/>
<text xml:space="preserve" text-anchor="middle" x="259.78" y="-115.43" font-family="Times,serif" font-size="10.00">f3</text>
</g>
<!-- 62&#45;&gt;113 -->
<g id="edge44" class="edge">
<title>62&#45;&gt;113</title>
<path fill="none" stroke="gray" stroke-width="1.5" d="M362.08,-32.48C319.91,-63.12 210.05,-142.94 156.38,-181.93"/>
<polygon fill="gray" stroke="gray" stroke-width="1.5" points="154.61,-178.89 148.58,-187.6 158.73,-184.55 154.61,-178.89"/>
<text xml:space="preserve" text-anchor="middle" x="255.11" y="-108.95" font-family="Times,serif" font-size="10.00">f4</text>
</g>
<!-- 62&#45;&gt;113 -->
<g id="edge45" class="edge">
<title>62&#45;&gt;113</title>
<path fill="none" stroke="gray" stroke-width="1.5" d="M359.15,-25.99C312.89,-49.76 199.7,-131.16 149.89,-175.52"/>
<polygon fill="gray" stroke="gray" stroke-width="1.5" points="147.75,-172.73 142.75,-182.07 152.48,-177.88 147.75,-172.73"/>
<text xml:space="preserve" text-anchor="middle" x="250.39" y="-102.5" font-family="Times,serif" font-size="10.00">f5</text>
</g>
<!-- 99 -->
<g id="node13" class="node">
<title>99</title>
<ellipse fill="none" stroke="black" stroke-width="2" cx="259.59" cy="-387.87" rx="20.13" ry="20.13"/>
<text xml:space="preserve" text-anchor="middle" x="259.59" y="-382.82" font-family="Times,serif" font-size="14.00">99</text>
</g>
<!-- 62&#45;&gt;99 -->
<g id="edge40" class="edge">
<title>62&#45;&gt;99</title>
<path fill="none" stroke="blue" stroke-width="2.5" d="M372.57,-40.16C352.99,-100.43 294.48,-280.48 270.27,-355.01"/>
<polygon fill="blue" stroke="blue" stroke-width="2.5" points="266.96,-353.86 267.2,-364.45 273.62,-356.02 266.96,-353.86"/>
<text xml:space="preserve" text-anchor="middle" x="312.42" y="-199.34" font-family="Times,serif" font-size="10.00">succ</text>
</g>
<!-- 99&#45;&gt;16 -->
<g id="edge48" class="edge">
<title>99&#45;&gt;16</title>
<path fill="none" stroke="gray" stroke-width="1.5" d="M246.26,-371.74C232.47,-359.62 210.62,-343.39 192.73,-331.78"/>
<polygon fill="gray" stroke="gray" stroke-width="1.5" points="194.74,-328.91 184.4,-326.59 191.03,-334.85 194.74,-328.91"/>
<text xml:space="preserve" text-anchor="middle" x="215.37" y="-342.26" font-family="Times,serif" font-size="10.00">f4</text>
</g>
<!-- 99&#45;&gt;16 -->
<g id="edge49" class="edge">
<title>99&#45;&gt;16</title>
<path fill="none" stroke="gray" stroke-width="1.5" d="M240.13,-380.18C224.26,-370.76 201.95,-354.9 185.35,-341.43"/>
<polygon fill="gray" stroke="gray" stroke-width="1.5" points="187.97,-339.06 178.07,-335.3 183.47,-344.42 187.97,-339.06"/>
<text xml:space="preserve" text-anchor="middle" x="208.61" y="-362.55" font-family="Times,serif" font-size="10.00">f5</text>
</g>
<!-- 99&#45;&gt;47 -->
<g id="edge50" class="edge">
<title>99&#45;&gt;47</title>
<path fill="none" stroke="gray" stroke-width="1.5" d="M280.68,-387.87C298.76,-387.87 325.13,-387.87 346.02,-387.87"/>
<polygon fill="gray" stroke="gray" stroke-width="1.5" points="345.93,-391.37 355.93,-387.87 345.93,-384.37 345.93,-391.37"/>
<text xml:space="preserve" text-anchor="middle" x="309.23" y="-389.62" font-family="Times,serif" font-size="10.00">f6</text>
</g>
<!-- 110 -->
<g id="node14" class="node">
<title>110</title>
<ellipse fill="none" stroke="black" stroke-width="2" cx="475.74" cy="-90.36" rx="24.74" ry="24.74"/>
<text xml:space="preserve" text-anchor="middle" x="475.74" y="-85.31" font-family="Times,serif" font-size="14.00">110</text>
</g>
<!-- 99&#45;&gt;110 -->
<g id="edge47" class="edge">
<title>99&#45;&gt;110</title>
<path fill="none" stroke="blue" stroke-width="2.5" d="M271.83,-371.02C306.73,-322.99 407.16,-184.76 452.75,-122.02"/>
<polygon fill="blue" stroke="blue" stroke-width="2.5" points="455.57,-124.08 458.62,-113.93 449.91,-119.97 455.57,-124.08"/>
<text xml:space="preserve" text-anchor="middle" x="353.29" y="-248.27" font-family="Times,serif" font-size="10.00">succ</text>
</g>
<!-- data_99 -->
<g id="node15" class="node">
<title>data_99</title>
<polygon fill="none" stroke="black" stroke-width="2" points="256,-500.03 202,-500.03 202,-464.03 256,-464.03 256,-500.03"/>
<text xml:space="preserve" text-anchor="middle" x="229" y="-478.15" font-family="Times,serif" font-size="10.00">1</text>
</g>
<!-- 99&#45;&gt;data_99 -->
<g id="edge51" class="edge">
<title>99&#45;&gt;data_99</title>
<path fill="none" stroke="black" stroke-width="1.5" stroke-dasharray="1,5" d="M253.1,-407.84C248.96,-420.58 243.52,-437.33 238.85,-451.69"/>
<polygon fill="black" stroke="black" stroke-width="1.5" points="235.63,-450.3 235.86,-460.89 242.28,-452.46 235.63,-450.3"/>
</g>
<!-- 110&#45;&gt;2 -->
<g id="edge53" class="edge">
<title>110&#45;&gt;2</title>
<path fill="none" stroke="gray" stroke-width="1.5" d="M467.07,-114.26C460.88,-156.25 460.64,-243.15 466.36,-288.56"/>
<polygon fill="gray" stroke="gray" stroke-width="1.5" points="462.86,-288.85 467.83,-298.21 469.78,-287.8 462.86,-288.85"/>
<text xml:space="preserve" text-anchor="middle" x="462.59" y="-203.16" font-family="Times,serif" font-size="10.00">f2</text>
</g>
<!-- 110&#45;&gt;2 -->
<g id="edge54" class="edge">
<title>110&#45;&gt;2</title>
<path fill="none" stroke="gray" stroke-width="1.5" d="M484.42,-114.26C490.61,-156.25 490.84,-243.15 485.13,-288.56"/>
<polygon fill="gray" stroke="gray" stroke-width="1.5" points="481.7,-287.8 483.65,-298.21 488.62,-288.85 481.7,-287.8"/>
<text xml:space="preserve" text-anchor="middle" x="480.65" y="-203.16" font-family="Times,serif" font-size="10.00">f3</text>
</g>
<!-- 110&#45;&gt;2 -->
<g id="edge55" class="edge">
<title>110&#45;&gt;2</title>
<path fill="none" stroke="gray" stroke-width="1.5" d="M475.74,-115.99C475.74,-157.94 475.74,-241.11 475.74,-286.43"/>
<polygon fill="gray" stroke="gray" stroke-width="1.5" points="472.24,-286.4 475.74,-296.4 479.24,-286.4 472.24,-286.4"/>
<text xml:space="preserve" text-anchor="middle" x="471.62" y="-202.96" font-family="Times,serif" font-size="10.00">f4</text>
</g>
<!-- 110&#45;&gt;125 -->
<g id="edge56" class="edge">
<title>110&#45;&gt;125</title>
<path fill="none" stroke="gray" stroke-width="1.5" d="M483.66,-114.74C488.73,-130.32 495.38,-150.79 501.03,-168.2"/>
<polygon fill="gray" stroke="gray" stroke-width="1.5" points="497.64,-169.08 504.06,-177.5 504.3,-166.91 497.64,-169.08"/>
<text xml:space="preserve" text-anchor="middle" x="488.22" y="-143.22" font-family="Times,serif" font-size="10.00">f5</text>
</g>
<!-- 110&#45;&gt;47 -->
<g id="edge57" class="edge">
<title>110&#45;&gt;47</title>
<path fill="none" stroke="gray" stroke-width="1.5" d="M467.83,-114.71C450.4,-168.35 408.71,-296.67 389.32,-356.35"/>
<polygon fill="gray" stroke="gray" stroke-width="1.5" points="386,-355.24 386.24,-365.84 392.66,-357.41 386,-355.24"/>
<text xml:space="preserve" text-anchor="middle" x="424.45" y="-237.28" font-family="Times,serif" font-size="10.00">f6</text>
</g>
<!-- 110&#45;&gt;113 -->
<g id="edge52" class="edge">
<title>110&#45;&gt;113</title>
<path fill="none" stroke="blue" stroke-width="2.5" d="M451.43,-98.26C391.18,-117.84 234.68,-168.69 162.92,-192"/>
<polygon fill="blue" stroke="blue" stroke-width="2.5" points="162.18,-188.57 153.75,-194.98 164.35,-195.22 162.18,-188.57"/>
<text xml:space="preserve" text-anchor="middle" x="298.18" y="-146.88" font-family="Times,serif" font-size="10.00">succ</text>
</g>
<!-- \n -->
<g id="node17" class="node">
<title>\n</title>
<ellipse fill="none" stroke="black" stroke-width="2" cx="546.33" cy="-502" rx="18" ry="18"/>
</g>
</g>
</svg>
